#N canvas 703 85 600 506 10;
#X declare -lib mrpeach;
#N canvas 730 133 647 302 receive-from-osc 0;
#X obj -241 83 select 1h1 1h0 1s1 1s0 1t1 1t0 2h1 2h0 2s1 2s0 2t1 2t0
3h1 3h0 3s1 3s0 3t1 3t0;
#X restore 12 11 pd receive-from-osc;
#N canvas 72 204 553 575 play-1s 0;
#N canvas 0 22 450 300 (subpatch) 0;
#X array 1s 211680 float 2;
#X coords 0 1 211680 -1 200 140 1;
#X restore -14 304 graph;
#X obj -256 52 soundfiler;
#X floatatom -226 84 15 0 0 0 - - -;
#X obj -256 137 expr 44100 / $f1;
#X obj -256 276 *~;
#X obj -147 285 tgl 15 0 empty empty empty 17 7 0 10 -262144 -1 -1
1 1;
#X obj -147 308 metro 50;
#X obj -147 338 snapshot~;
#X floatatom -130 362 15 0 0 0 - - -;
#X obj -147 407 /;
#X obj -10 454 hsl 195 15 0 1 0 0 empty empty empty -2 -8 0 10 -262144
-1 -1 15155 1;
#X floatatom -135 436 5 0 0 0 - - -;
#X obj -256 231 phasor~;
#X obj -147 261 r Toggle_Start;
#X obj -258 466 dac~;
#X obj -256 -6 r bang_read_wav;
#X obj -39 -3 r startSamples;
#X msg -256 171 set \$1;
#X msg -256 201 0.208333;
#X msg -238 343 0 50;
#X obj -255 431 *~;
#X obj -38 25 bng 15 250 50 0 empty empty empty 17 7 0 10 -262144 -1
-1;
#X obj -243 255 r SampleSize1s;
#X obj -270 316 r stop1s;
#X obj -208 317 r play1s;
#X obj -255 399 tabread4~ 1s;
#X obj -129 383 r SampleSize1s;
#X obj -226 105 s SampleSize1s;
#X msg -255 23 read -resize -maxsize 211680 music/1s.wav 1s;
#X obj -238 372 vline~;
#X msg -193 343 0.8 50 \, 0 50 300;
#X connect 1 0 2 0;
#X connect 1 0 3 0;
#X connect 2 0 27 0;
#X connect 3 0 17 0;
#X connect 4 0 7 0;
#X connect 4 0 25 0;
#X connect 5 0 6 0;
#X connect 6 0 7 0;
#X connect 7 0 8 0;
#X connect 7 0 9 0;
#X connect 9 0 11 0;
#X connect 11 0 10 0;
#X connect 12 0 4 0;
#X connect 13 0 5 0;
#X connect 15 0 28 0;
#X connect 16 0 21 0;
#X connect 17 0 18 0;
#X connect 18 0 12 0;
#X connect 19 0 29 0;
#X connect 20 0 14 0;
#X connect 20 0 14 1;
#X connect 21 0 18 0;
#X connect 22 0 4 1;
#X connect 23 0 19 0;
#X connect 24 0 30 0;
#X connect 25 0 20 0;
#X connect 26 0 9 1;
#X connect 28 0 1 0;
#X connect 29 0 20 1;
#X connect 30 0 29 0;
#X restore 12 275 pd play-1s;
#N canvas 857 45 580 591 play-1h 0;
#N canvas 0 22 450 300 (subpatch) 0;
#X array 1h 105840 float 2;
#X coords 0 1 105840 -1 200 140 1;
#X restore -4 314 graph;
#X obj -246 62 soundfiler;
#X floatatom -216 94 15 0 0 0 - - -;
#X obj -246 147 expr 44100 / $f1;
#X obj -246 286 *~;
#X obj -137 295 tgl 15 0 empty empty empty 17 7 0 10 -262144 -1 -1
1 1;
#X obj -137 318 metro 50;
#X obj -137 348 snapshot~;
#X floatatom -120 372 15 0 0 0 - - -;
#X obj -137 417 /;
#X obj 0 464 hsl 195 15 0 1 0 0 empty empty empty -2 -8 0 10 -262144
-1 -1 10909 1;
#X floatatom -125 446 5 0 0 0 - - -;
#X obj -246 241 phasor~;
#X obj -137 271 r Toggle_Start;
#X obj -248 476 dac~;
#X obj -246 4 r bang_read_wav;
#X obj -29 7 r startSamples;
#X msg -246 181 set \$1;
#X msg -246 211 0.416667;
#X msg -228 353 0 50;
#X obj -245 441 *~;
#X obj -28 35 bng 15 250 50 0 empty empty empty 17 7 0 10 -262144 -1
-1;
#X obj -216 115 s SampleSize1h;
#X obj -233 265 r SampleSize1h;
#X obj -260 326 r stop1h;
#X obj -198 327 r play1h;
#X obj -245 409 tabread4~ 1h;
#X obj -119 393 r SampleSize1h;
#X obj -228 382 vline~;
#X msg -245 33 read -resize -maxsize 105840 music/1h.wav 1h;
#X msg -183 353 0.8 50 \, 0 50 300;
#X connect 1 0 2 0;
#X connect 1 0 3 0;
#X connect 2 0 22 0;
#X connect 3 0 17 0;
#X connect 4 0 7 0;
#X connect 4 0 26 0;
#X connect 5 0 6 0;
#X connect 6 0 7 0;
#X connect 7 0 8 0;
#X connect 7 0 9 0;
#X connect 9 0 11 0;
#X connect 11 0 10 0;
#X connect 12 0 4 0;
#X connect 13 0 5 0;
#X connect 15 0 29 0;
#X connect 16 0 21 0;
#X connect 17 0 18 0;
#X connect 18 0 12 0;
#X connect 19 0 28 0;
#X connect 20 0 14 0;
#X connect 20 0 14 1;
#X connect 21 0 18 0;
#X connect 23 0 4 1;
#X connect 24 0 19 0;
#X connect 25 0 30 0;
#X connect 26 0 20 0;
#X connect 27 0 9 1;
#X connect 28 0 20 1;
#X connect 29 0 1 0;
#X connect 30 0 28 0;
#X restore 12 295 pd play-1h;
#N canvas 520 225 543 538 play-1t 0;
#N canvas 0 22 450 300 (subpatch) 0;
#X array 1t 423360 float 2;
#X coords 0 1 423360 -1 200 140 1;
#X restore 6 324 graph;
#X obj -236 72 soundfiler;
#X floatatom -206 104 15 0 0 0 - - -;
#X obj -236 157 expr 44100 / $f1;
#X obj -236 296 *~;
#X obj -127 305 tgl 15 0 empty empty empty 17 7 0 10 -262144 -1 -1
1 1;
#X obj -127 328 metro 50;
#X obj -127 358 snapshot~;
#X floatatom -110 382 15 0 0 0 - - -;
#X obj -127 427 /;
#X obj 10 474 hsl 195 15 0 1 0 0 empty empty empty -2 -8 0 10 -262144
-1 -1 17277 1;
#X floatatom -115 456 5 0 0 0 - - -;
#X obj -236 251 phasor~;
#X obj -127 281 r Toggle_Start;
#X obj -238 486 dac~;
#X obj -236 14 r bang_read_wav;
#X obj -19 17 r startSamples;
#X msg -236 191 set \$1;
#X msg -236 221 0.104167;
#X msg -218 363 0 50;
#X obj -235 451 *~;
#X obj -18 45 bng 15 250 50 0 empty empty empty 17 7 0 10 -262144 -1
-1;
#X obj -206 125 s SampleSize1t;
#X obj -223 275 r SampleSize1t;
#X obj -250 336 r stop1t;
#X obj -188 337 r play1t;
#X obj -235 419 tabread4~ 1t;
#X obj -109 403 r SampleSize1t;
#X obj -218 392 vline~;
#X msg -235 43 read -resize -maxsize 423360 music/1t.wav 1t;
#X msg -173 361 0.8 50 \, 0 50 300;
#X connect 1 0 2 0;
#X connect 1 0 3 0;
#X connect 2 0 22 0;
#X connect 3 0 17 0;
#X connect 4 0 7 0;
#X connect 4 0 26 0;
#X connect 5 0 6 0;
#X connect 6 0 7 0;
#X connect 7 0 8 0;
#X connect 7 0 9 0;
#X connect 9 0 11 0;
#X connect 11 0 10 0;
#X connect 12 0 4 0;
#X connect 13 0 5 0;
#X connect 15 0 29 0;
#X connect 16 0 21 0;
#X connect 17 0 18 0;
#X connect 18 0 12 0;
#X connect 19 0 28 0;
#X connect 20 0 14 0;
#X connect 20 0 14 1;
#X connect 21 0 18 0;
#X connect 23 0 4 1;
#X connect 24 0 19 0;
#X connect 25 0 30 0;
#X connect 26 0 20 0;
#X connect 27 0 9 1;
#X connect 28 0 20 1;
#X connect 29 0 1 0;
#X connect 30 0 28 0;
#X restore 12 316 pd play-1t;
#N canvas 438 92 556 541 play-2s 0;
#N canvas 0 22 450 300 (subpatch) 0;
#X array 2s 211680 float 2;
#X coords 0 1 211680 -1 200 140 1;
#X restore -4 314 graph;
#X obj -246 62 soundfiler;
#X floatatom -216 94 15 0 0 0 - - -;
#X obj -246 147 expr 44100 / $f1;
#X obj -246 286 *~;
#X obj -137 295 tgl 15 0 empty empty empty 17 7 0 10 -262144 -1 -1
1 1;
#X obj -137 318 metro 50;
#X obj -137 348 snapshot~;
#X floatatom -120 372 15 0 0 0 - - -;
#X obj -137 417 /;
#X obj 0 464 hsl 195 15 0 1 0 0 empty empty empty -2 -8 0 10 -262144
-1 -1 15155 1;
#X floatatom -125 446 5 0 0 0 - - -;
#X obj -246 241 phasor~;
#X obj -137 271 r Toggle_Start;
#X obj -248 476 dac~;
#X obj -246 4 r bang_read_wav;
#X obj -29 7 r startSamples;
#X msg -246 181 set \$1;
#X msg -246 211 0.208333;
#X msg -228 353 0 50;
#X obj -245 441 *~;
#X obj -28 35 bng 15 250 50 0 empty empty empty 17 7 0 10 -262144 -1
-1;
#X obj -216 115 s SampleSize2s;
#X obj -233 265 r SampleSize2s;
#X obj -260 326 r stop2s;
#X obj -198 327 r play2s;
#X obj -245 409 tabread4~ 2s;
#X obj -119 393 r SampleSize2s;
#X msg -22 119 423360;
#X obj -228 382 vline~;
#X msg -245 33 read -resize -maxsize 211680 music/2s.wav 2s;
#X msg -183 353 0.8 50 \, 0 50 300;
#X connect 1 0 2 0;
#X connect 1 0 3 0;
#X connect 2 0 22 0;
#X connect 3 0 17 0;
#X connect 4 0 7 0;
#X connect 4 0 26 0;
#X connect 5 0 6 0;
#X connect 6 0 7 0;
#X connect 7 0 8 0;
#X connect 7 0 9 0;
#X connect 9 0 11 0;
#X connect 11 0 10 0;
#X connect 12 0 4 0;
#X connect 13 0 5 0;
#X connect 15 0 30 0;
#X connect 16 0 21 0;
#X connect 17 0 18 0;
#X connect 18 0 12 0;
#X connect 19 0 29 0;
#X connect 20 0 14 0;
#X connect 20 0 14 1;
#X connect 21 0 18 0;
#X connect 23 0 4 1;
#X connect 24 0 19 0;
#X connect 25 0 31 0;
#X connect 26 0 20 0;
#X connect 27 0 9 1;
#X connect 28 0 22 0;
#X connect 29 0 20 1;
#X connect 30 0 1 0;
#X connect 31 0 29 0;
#X restore 111 275 pd play-2s;
#N canvas 224 158 524 559 play-2h 0;
#N canvas 0 22 450 300 (subpatch) 0;
#X array 2h 105840 float 2;
#X coords 0 1 105840 -1 200 140 1;
#X restore 6 324 graph;
#X obj -236 72 soundfiler;
#X floatatom -206 104 15 0 0 0 - - -;
#X obj -236 157 expr 44100 / $f1;
#X obj -236 296 *~;
#X obj -127 305 tgl 15 0 empty empty empty 17 7 0 10 -262144 -1 -1
1 1;
#X obj -127 328 metro 50;
#X obj -127 358 snapshot~;
#X floatatom -110 382 15 0 0 0 - - -;
#X obj -127 427 /;
#X obj 10 474 hsl 195 15 0 1 0 0 empty empty empty -2 -8 0 10 -262144
-1 -1 10909 1;
#X floatatom -115 456 5 0 0 0 - - -;
#X obj -236 251 phasor~;
#X obj -127 281 r Toggle_Start;
#X obj -238 486 dac~;
#X obj -236 14 r bang_read_wav;
#X obj -19 17 r startSamples;
#X msg -236 191 set \$1;
#X msg -236 221 0.416667;
#X msg -218 363 0 50;
#X obj -235 451 *~;
#X obj -17 45 bng 15 250 50 0 empty empty empty 17 7 0 10 -262144 -1
-1;
#X msg -12 129 423360;
#X obj -206 125 s SampleSize2h;
#X obj -223 275 r SampleSize2h;
#X obj -250 336 r stop2h;
#X obj -188 337 r play2h;
#X obj -235 419 tabread4~ 2h;
#X obj -109 403 r SampleSize2h;
#X obj -218 392 vline~;
#X msg -235 43 read -resize -maxsize 105840 music/2h.wav 2h;
#X msg -173 363 0.8 50 \, 0 50 300;
#X connect 1 0 2 0;
#X connect 1 0 3 0;
#X connect 2 0 23 0;
#X connect 3 0 17 0;
#X connect 4 0 7 0;
#X connect 4 0 27 0;
#X connect 5 0 6 0;
#X connect 6 0 7 0;
#X connect 7 0 8 0;
#X connect 7 0 9 0;
#X connect 9 0 11 0;
#X connect 11 0 10 0;
#X connect 12 0 4 0;
#X connect 13 0 5 0;
#X connect 15 0 30 0;
#X connect 16 0 21 0;
#X connect 17 0 18 0;
#X connect 18 0 12 0;
#X connect 19 0 29 0;
#X connect 20 0 14 0;
#X connect 20 0 14 1;
#X connect 21 0 18 0;
#X connect 22 0 23 0;
#X connect 24 0 4 1;
#X connect 25 0 19 0;
#X connect 26 0 31 0;
#X connect 27 0 20 0;
#X connect 28 0 9 1;
#X connect 29 0 20 1;
#X connect 30 0 1 0;
#X connect 31 0 29 0;
#X restore 111 295 pd play-2h;
#N canvas 755 22 685 568 play-2t 0;
#N canvas 0 22 450 300 (subpatch) 0;
#X array 2t 460800 float 2;
#X coords 0 1 460800 -1 200 140 1;
#X restore 31 290 graph;
#X obj -211 38 soundfiler;
#X floatatom -181 70 15 0 0 0 - - -;
#X obj -211 262 *~;
#X obj -102 271 tgl 15 0 empty empty empty 17 7 0 10 -262144 -1 -1
1 1;
#X obj -102 294 metro 50;
#X obj -102 324 snapshot~;
#X floatatom -85 348 15 0 0 0 - - -;
#X obj -102 393 /;
#X obj 35 440 hsl 195 15 0 1 0 0 empty empty empty -2 -8 0 10 -262144
-1 -1 17277 1;
#X floatatom -90 422 5 0 0 0 - - -;
#X obj -211 217 phasor~;
#X obj -102 247 r Toggle_Start;
#X obj -213 452 dac~;
#X obj -211 -20 r bang_read_wav;
#X obj 6 -17 r startSamples;
#X msg -211 157 set \$1;
#X msg -211 187 0.104167;
#X msg -193 329 0 50;
#X obj -210 417 *~;
#X obj 7 11 bng 15 250 50 0 empty empty empty 17 7 0 10 -262144 -1
-1;
#X msg 13 95 423360;
#X msg -210 9 read -resize -maxsize 460800 music/2t.wav 2t;
#X obj -181 91 s SampleSize2t;
#X obj -198 241 r SampleSize2t;
#X obj -225 302 r stop2t;
#X obj -163 303 r play2t;
#X obj -210 385 tabread4~ 2t;
#X obj -84 369 r SampleSize2t;
#X obj -211 123 expr 48000 / $f1;
#X obj -193 358 vline~;
#X msg -148 329 0.8 50 \, 0 50 300;
#X connect 1 0 2 0;
#X connect 1 0 29 0;
#X connect 2 0 23 0;
#X connect 3 0 6 0;
#X connect 3 0 27 0;
#X connect 4 0 5 0;
#X connect 5 0 6 0;
#X connect 6 0 7 0;
#X connect 6 0 8 0;
#X connect 8 0 10 0;
#X connect 10 0 9 0;
#X connect 11 0 3 0;
#X connect 12 0 4 0;
#X connect 14 0 22 0;
#X connect 15 0 20 0;
#X connect 16 0 17 0;
#X connect 17 0 11 0;
#X connect 18 0 30 0;
#X connect 19 0 13 0;
#X connect 19 0 13 1;
#X connect 20 0 17 0;
#X connect 21 0 23 0;
#X connect 22 0 1 0;
#X connect 24 0 3 1;
#X connect 25 0 18 0;
#X connect 26 0 31 0;
#X connect 27 0 19 0;
#X connect 28 0 8 1;
#X connect 29 0 16 0;
#X connect 30 0 19 1;
#X connect 31 0 30 0;
#X restore 111 316 pd play-2t;
#N canvas 8 22 658 602 play-3s 0;
#N canvas 0 22 450 300 (subpatch) 0;
#X array 3s 105840 float 2;
#X coords 0 1 105840 -1 200 140 1;
#X restore -91 332 graph;
#X obj -333 80 soundfiler;
#X floatatom -303 112 15 0 0 0 - - -;
#X obj -333 165 expr 44100 / $f1;
#X obj -333 304 *~;
#X obj -224 313 tgl 15 0 empty empty empty 17 7 0 10 -262144 -1 -1
1 1;
#X obj -224 336 metro 50;
#X obj -224 366 snapshot~;
#X floatatom -207 390 15 0 0 0 - - -;
#X obj -224 435 /;
#X obj -87 482 hsl 195 15 0 1 0 0 empty empty empty -2 -8 0 10 -262144
-1 -1 0 1;
#X floatatom -212 464 5 0 0 0 - - -;
#X obj -333 259 phasor~;
#X obj -332 427 tabread4~ 3s;
#X obj -303 133 s SampleSize3s;
#X obj -320 283 r SampleSize3s;
#X obj -206 411 r SampleSize3s;
#X obj -224 289 r Toggle_Start;
#X obj -335 494 dac~;
#X obj -333 22 r bang_read_wav;
#X obj -285 345 r play3s;
#X obj -78 72 r startSamples;
#X msg -333 199 set \$1;
#X msg -333 229 0;
#X msg -315 371 0 50;
#X obj -347 344 r stop3s;
#X obj -332 459 *~;
#X obj -72 94 bng 15 250 50 0 empty empty empty 17 7 0 10 -262144 -1
-1;
#X msg -333 51 read -resize -maxsize 105840 music/3s.wav 3s;
#X msg -270 371 0.8 50 \, 0 50 100;
#X obj -315 400 vline~;
#X connect 1 0 2 0;
#X connect 1 0 3 0;
#X connect 2 0 14 0;
#X connect 3 0 22 0;
#X connect 4 0 7 0;
#X connect 4 0 13 0;
#X connect 5 0 6 0;
#X connect 6 0 7 0;
#X connect 7 0 8 0;
#X connect 7 0 9 0;
#X connect 9 0 11 0;
#X connect 11 0 10 0;
#X connect 12 0 4 0;
#X connect 13 0 26 0;
#X connect 15 0 4 1;
#X connect 16 0 9 1;
#X connect 17 0 5 0;
#X connect 19 0 28 0;
#X connect 20 0 29 0;
#X connect 21 0 27 0;
#X connect 22 0 23 0;
#X connect 23 0 12 0;
#X connect 24 0 30 0;
#X connect 25 0 24 0;
#X connect 26 0 18 0;
#X connect 26 0 18 1;
#X connect 27 0 23 0;
#X connect 28 0 1 0;
#X connect 29 0 30 0;
#X connect 30 0 26 1;
#X restore 205 274 pd play-3s;
#N canvas 88 154 522 497 play-3h 0;
#N canvas 0 22 450 300 (subpatch) 0;
#X array 3h 105840 float 2;
#X coords 0 1 105840 -1 200 140 1;
#X restore -75 314 graph;
#X obj -317 62 soundfiler;
#X floatatom -287 94 15 0 0 0 - - -;
#X obj -317 147 expr 44100 / $f1;
#X obj -317 286 *~;
#X obj -208 295 tgl 15 0 empty empty empty 17 7 0 10 -262144 -1 -1
1 1;
#X obj -208 318 metro 50;
#X obj -208 348 snapshot~;
#X floatatom -191 372 15 0 0 0 - - -;
#X obj -208 417 /;
#X obj -71 464 hsl 195 15 0 1 0 0 empty empty empty -2 -8 0 10 -262144
-1 -1 0 1;
#X floatatom -196 446 5 0 0 0 - - -;
#X obj -317 241 phasor~;
#X obj -208 271 r Toggle_Start;
#X obj -319 476 dac~;
#X obj -317 4 r bang_read_wav;
#X obj -62 54 r startSamples;
#X msg -317 181 set \$1;
#X msg -317 211 0;
#X msg -299 353 0 50;
#X obj -316 441 *~;
#X obj -56 76 bng 15 250 50 0 empty empty empty 17 7 0 10 -262144 -1
-1;
#X msg -317 33 read -resize -maxsize 105840 music/3h.wav 3h;
#X obj -287 115 s SampleSize3h;
#X obj -304 265 r SampleSize3h;
#X obj -269 327 r play3h;
#X obj -331 326 r stop3h;
#X obj -316 409 tabread4~ 3h;
#X obj -190 393 r SampleSize3h;
#X obj -299 382 vline~;
#X msg -254 353 0.8 50 \, 0 50 100;
#X connect 1 0 2 0;
#X connect 1 0 3 0;
#X connect 2 0 23 0;
#X connect 3 0 17 0;
#X connect 4 0 7 0;
#X connect 4 0 27 0;
#X connect 5 0 6 0;
#X connect 6 0 7 0;
#X connect 7 0 8 0;
#X connect 7 0 9 0;
#X connect 9 0 11 0;
#X connect 11 0 10 0;
#X connect 12 0 4 0;
#X connect 13 0 5 0;
#X connect 15 0 22 0;
#X connect 16 0 21 0;
#X connect 17 0 18 0;
#X connect 18 0 12 0;
#X connect 19 0 29 0;
#X connect 20 0 14 0;
#X connect 20 0 14 1;
#X connect 21 0 18 0;
#X connect 22 0 1 0;
#X connect 24 0 4 1;
#X connect 25 0 30 0;
#X connect 26 0 19 0;
#X connect 27 0 20 0;
#X connect 28 0 9 1;
#X connect 29 0 20 1;
#X connect 30 0 29 0;
#X restore 205 294 pd play-3h;
#N canvas 684 105 642 532 play-3t 0;
#N canvas 0 22 450 300 (subpatch) 0;
#X array 3t 105840 float 2;
#X coords 0 1 105840 -1 200 140 1;
#X restore -71 327 graph;
#X obj -313 75 soundfiler;
#X floatatom -283 107 15 0 0 0 - - -;
#X obj -313 160 expr 44100 / $f1;
#X obj -313 299 *~;
#X obj -204 308 tgl 15 0 empty empty empty 17 7 0 10 -262144 -1 -1
1 1;
#X obj -204 331 metro 50;
#X obj -204 361 snapshot~;
#X floatatom -187 385 15 0 0 0 - - -;
#X obj -204 430 /;
#X obj -67 477 hsl 195 15 0 1 0 0 empty empty empty -2 -8 0 10 -262144
-1 -1 0 1;
#X floatatom -192 459 5 0 0 0 - - -;
#X obj -313 254 phasor~;
#X obj -204 284 r Toggle_Start;
#X obj -315 489 dac~;
#X obj -313 17 r bang_read_wav;
#X obj -58 67 r startSamples;
#X msg -313 194 set \$1;
#X msg -313 224 0;
#X msg -295 366 0 50;
#X obj -312 454 *~;
#X obj -52 89 bng 15 250 50 0 empty empty empty 17 7 0 10 -262144 -1
-1;
#X msg -313 46 read -resize -maxsize 105840 music/3t.wav 3t;
#X obj -283 128 s SampleSize3t;
#X obj -300 278 r SampleSize3t;
#X obj -327 339 r stop3t;
#X obj -265 340 r play3t;
#X obj -312 422 tabread4~ 3t;
#X obj -186 406 r SampleSize3t;
#X obj -295 395 vline~;
#X msg -250 366 0.8 50 \, 0 50 100;
#X connect 1 0 2 0;
#X connect 1 0 3 0;
#X connect 2 0 23 0;
#X connect 3 0 17 0;
#X connect 4 0 7 0;
#X connect 4 0 27 0;
#X connect 5 0 6 0;
#X connect 6 0 7 0;
#X connect 7 0 8 0;
#X connect 7 0 9 0;
#X connect 9 0 11 0;
#X connect 11 0 10 0;
#X connect 12 0 4 0;
#X connect 13 0 5 0;
#X connect 15 0 22 0;
#X connect 16 0 21 0;
#X connect 17 0 18 0;
#X connect 18 0 12 0;
#X connect 19 0 29 0;
#X connect 20 0 14 0;
#X connect 20 0 14 1;
#X connect 21 0 18 0;
#X connect 22 0 1 0;
#X connect 24 0 4 1;
#X connect 25 0 19 0;
#X connect 26 0 30 0;
#X connect 27 0 20 0;
#X connect 28 0 9 1;
#X connect 29 0 20 1;
#X connect 30 0 29 0;
#X restore 205 315 pd play-3t;
#X obj 436 72 tgl 35 0 empty empty Start 2 47 0 10 -258113 -1 -1 1
1;
#X obj 444 176 s Toggle_Start;
#X obj 436 198 t b b b;
#X obj 475 226 s bang_read_wav;
#X obj 455 250 s not_play_yet;
#N canvas 476 42 806 776 decide-messages 1;
#X obj 95 145 s play1s;
#X obj 114 171 s stop1s;
#X obj 57 92 s play1h;
#X obj 76 116 s stop1h;
#X obj 133 196 s play1t;
#X obj 152 221 s stop1t;
#X obj 209 277 s play2s;
#X obj 229 364 s stop2s;
#X obj 172 244 s play2h;
#X obj 191 309 s stop2h;
#X obj 247 244 s play2t;
#X obj 267 309 s stop2t;
#X obj 324 247 s play3s;
#X obj 344 308 s stop3s;
#X obj 362 277 s play3t;
#X obj 382 363 s stop3t;
#X obj 286 277 s play3h;
#X obj 306 365 s stop3h;
#X obj 95 38 bng 15 250 50 0 empty empty empty 17 7 0 10 -262144 -1
-1;
#X obj 114 38 bng 15 250 50 0 empty empty empty 17 7 0 10 -262144 -1
-1;
#X msg 400 -92 symbol 1s1;
#X msg 410 -64 symbol 1s0;
#X obj 133 39 bng 15 250 50 0 empty empty empty 17 7 0 10 -262144 -1
-1;
#X obj 152 39 bng 15 250 50 0 empty empty empty 17 7 0 10 -262144 -1
-1;
#X obj 172 39 bng 15 250 50 0 empty empty empty 17 7 0 10 -262144 -1
-1;
#X obj 191 39 bng 15 250 50 0 empty empty empty 17 7 0 10 -262144 -1
-1;
#X obj 210 40 bng 15 250 50 0 empty empty empty 17 7 0 10 -262144 -1
-1;
#X obj 229 40 bng 15 250 50 0 empty empty empty 17 7 0 10 -262144 -1
-1;
#X obj 248 40 bng 15 250 50 0 empty empty empty 17 7 0 10 -262144 -1
-1;
#X obj 267 40 bng 15 250 50 0 empty empty empty 17 7 0 10 -262144 -1
-1;
#X obj 287 40 bng 15 250 50 0 empty empty empty 17 7 0 10 -262144 -1
-1;
#X obj 306 40 bng 15 250 50 0 empty empty empty 17 7 0 10 -262144 -1
-1;
#X obj 325 40 bng 15 250 50 0 empty empty empty 17 7 0 10 -262144 -1
-1;
#X obj 344 40 bng 15 250 50 0 empty empty empty 17 7 0 10 -262144 -1
-1;
#X obj 363 41 bng 15 250 50 0 empty empty empty 17 7 0 10 -262144 -1
-1;
#X obj 382 41 bng 15 250 50 0 empty empty empty 17 7 0 10 -262144 -1
-1;
#X obj 402 42 bng 15 250 50 0 empty empty empty 17 7 0 10 -262144 -1
-1;
#X obj 57 37 bng 15 250 50 0 empty empty empty 17 7 0 10 -262144 -1
-1;
#X obj 76 38 bng 15 250 50 0 empty empty empty 17 7 0 10 -262144 -1
-1;
#X msg 391 -127 symbol 1t0;
#X msg 381 -155 symbol 1t1;
#X msg 356 -200 symbol 1h1;
#X msg 370 -178 symbol 1h0;
#X msg 451 -202 symbol 2h1;
#X msg 465 -180 symbol 2h0;
#X msg 476 -157 symbol 2t1;
#X msg 486 -129 symbol 2t0;
#X msg 495 -94 symbol 2s1;
#X msg 505 -66 symbol 2s0;
#X msg 552 -205 symbol 3h1;
#X msg 566 -183 symbol 3h0;
#X msg 577 -160 symbol 3t1;
#X msg 587 -132 symbol 3t0;
#X msg 596 -97 symbol 3s1;
#X obj 54 -247 import mrpeach;
#X obj 54 -224 udpreceive 9999;
#X obj 54 -194 unpackOSC;
#X obj 54 -125 unpack s;
#X obj 100 -94 print;
#X obj 140 -129 print;
#X obj 54 -165 routeOSC /titsPD;
#X obj 402 338 s playp1l;
#X obj 423 314 s playp2l;
#X obj 423 44 bng 15 250 50 0 empty empty empty 17 7 0 10 -262144 -1
-1;
#X obj 57 -8 select 1h1 1h0 1s1 1s0 1t1 1t0 2h1 2h0 2s1 2s0 2t1 2t0
3h1 3h0 3s1 3s0 3t1 3t0 p1l p2l p1c p2c;
#X obj 447 47 bng 15 250 50 0 empty empty empty 17 7 0 10 -262144 -1
-1;
#X obj 471 46 bng 15 250 50 0 empty empty empty 17 7 0 10 -262144 -1
-1;
#X obj 441 279 s playp1c;
#X obj 488 248 s playp2c;
#X msg 606 -69 symbol p1c;
#X connect 18 0 0 0;
#X connect 19 0 1 0;
#X connect 20 0 64 0;
#X connect 21 0 64 0;
#X connect 22 0 4 0;
#X connect 23 0 5 0;
#X connect 24 0 8 0;
#X connect 25 0 9 0;
#X connect 26 0 6 0;
#X connect 27 0 7 0;
#X connect 28 0 10 0;
#X connect 29 0 11 0;
#X connect 30 0 16 0;
#X connect 31 0 17 0;
#X connect 32 0 12 0;
#X connect 33 0 13 0;
#X connect 34 0 14 0;
#X connect 35 0 15 0;
#X connect 36 0 61 0;
#X connect 37 0 2 0;
#X connect 38 0 3 0;
#X connect 39 0 64 0;
#X connect 40 0 64 0;
#X connect 41 0 64 0;
#X connect 42 0 64 0;
#X connect 43 0 64 0;
#X connect 44 0 64 0;
#X connect 45 0 64 0;
#X connect 46 0 64 0;
#X connect 47 0 64 0;
#X connect 48 0 64 0;
#X connect 49 0 64 0;
#X connect 50 0 64 0;
#X connect 51 0 64 0;
#X connect 52 0 64 0;
#X connect 53 0 64 0;
#X connect 55 0 56 0;
#X connect 56 0 60 0;
#X connect 57 0 58 0;
#X connect 57 0 64 0;
#X connect 60 0 57 0;
#X connect 63 0 62 0;
#X connect 64 0 37 0;
#X connect 64 1 38 0;
#X connect 64 2 18 0;
#X connect 64 3 19 0;
#X connect 64 4 22 0;
#X connect 64 5 23 0;
#X connect 64 6 24 0;
#X connect 64 7 25 0;
#X connect 64 8 26 0;
#X connect 64 9 27 0;
#X connect 64 10 28 0;
#X connect 64 11 29 0;
#X connect 64 12 30 0;
#X connect 64 13 31 0;
#X connect 64 14 32 0;
#X connect 64 15 33 0;
#X connect 64 16 34 0;
#X connect 64 17 35 0;
#X connect 64 18 36 0;
#X connect 64 19 63 0;
#X connect 64 20 65 0;
#X connect 64 21 66 0;
#X connect 65 0 67 0;
#X connect 66 0 68 0;
#X connect 69 0 64 0;
#X restore 196 124 pd decide-messages;
#X obj 435 315 del 3000;
#X obj 437 379 s startSamples;
#X obj 377 335 bng 15 250 50 0 empty empty empty 17 7 0 10 -262144
-1 -1;
#N canvas 8 22 658 602 play-p1l 1;
#N canvas 0 22 450 300 (subpatch) 0;
#X array p1l 55296 float 2;
#X coords 0 1 55296 -1 200 140 1;
#X restore -91 332 graph;
#X obj -333 80 soundfiler;
#X floatatom -303 112 15 0 0 0 - - -;
#X obj -333 165 expr 44100 / $f1;
#X obj -333 304 *~;
#X obj -224 313 tgl 15 0 empty empty empty 17 7 0 10 -262144 -1 -1
0 1;
#X obj -224 336 metro 50;
#X obj -224 366 snapshot~;
#X floatatom -207 390 15 0 0 0 - - -;
#X obj -224 435 /;
#X obj -87 482 hsl 195 15 0 1 0 0 empty empty empty -2 -8 0 10 -262144
-1 -1 0 1;
#X floatatom -212 464 5 0 0 0 - - -;
#X obj -333 259 phasor~;
#X obj -224 251 r Toggle_Start;
#X obj -335 494 dac~;
#X obj -333 22 r bang_read_wav;
#X obj -78 72 r startSamples;
#X msg -333 199 set \$1;
#X msg -333 229 0.797526;
#X msg -315 371 0 50;
#X obj -332 459 *~;
#X obj -72 94 bng 15 250 50 0 empty empty empty 17 7 0 10 -262144 -1
-1;
#X msg -270 371 0.8 50 \, 0 50 100;
#X obj -315 400 vline~;
#X obj -285 345 r playp1l;
#X obj -347 344 r stopp1l;
#X obj -332 427 tabread4~ p1l;
#X obj -206 411 r SampleSizep1l;
#X obj -320 283 r SampleSizep1l;
#X obj -303 133 s SampleSizep1l;
#X msg -333 51 read -resize music/p1l.wav p1l;
#X connect 1 0 2 0;
#X connect 1 0 3 0;
#X connect 2 0 29 0;
#X connect 3 0 17 0;
#X connect 4 0 7 0;
#X connect 4 0 26 0;
#X connect 5 0 6 0;
#X connect 6 0 7 0;
#X connect 7 0 8 0;
#X connect 7 0 9 0;
#X connect 9 0 11 0;
#X connect 11 0 10 0;
#X connect 12 0 4 0;
#X connect 15 0 30 0;
#X connect 16 0 21 0;
#X connect 17 0 18 0;
#X connect 18 0 12 0;
#X connect 19 0 23 0;
#X connect 20 0 14 0;
#X connect 20 0 14 1;
#X connect 21 0 18 0;
#X connect 22 0 23 0;
#X connect 23 0 20 1;
#X connect 24 0 22 0;
#X connect 25 0 19 0;
#X connect 26 0 20 0;
#X connect 27 0 9 1;
#X connect 28 0 4 1;
#X connect 30 0 1 0;
#X restore 17 390 pd play-p1l;
#N canvas 550 168 522 497 play-p2l 1;
#N canvas 0 22 450 300 (subpatch) 0;
#X array p2l 64512 float 2;
#X coords 0 1 64512 -1 200 140 1;
#X restore -75 314 graph;
#X obj -317 62 soundfiler;
#X floatatom -287 94 15 0 0 0 - - -;
#X obj -317 147 expr 44100 / $f1;
#X obj -317 286 *~;
#X obj -208 295 tgl 15 0 empty empty empty 17 7 0 10 -262144 -1 -1
0 1;
#X obj -208 318 metro 50;
#X obj -208 348 snapshot~;
#X floatatom -191 372 15 0 0 0 - - -;
#X obj -208 417 /;
#X obj -71 464 hsl 195 15 0 1 0 0 empty empty empty -2 -8 0 10 -262144
-1 -1 0 1;
#X floatatom -196 446 5 0 0 0 - - -;
#X obj -317 241 phasor~;
#X obj -206 232 r Toggle_Start;
#X obj -319 476 dac~;
#X obj -317 4 r bang_read_wav;
#X obj -62 54 r startSamples;
#X msg -317 181 set \$1;
#X msg -317 211 0.683594;
#X msg -299 353 0 50;
#X obj -316 441 *~;
#X obj -56 76 bng 15 250 50 0 empty empty empty 17 7 0 10 -262144 -1
-1;
#X obj -299 382 vline~;
#X msg -254 353 0.8 50 \, 0 50 100;
#X obj -269 327 r playp2l;
#X obj -331 326 r stopp2l;
#X obj -287 115 s SampleSizep2l;
#X obj -304 265 r SampleSizep2l;
#X obj -316 409 tabread4~ p2l;
#X obj -190 393 r SampleSizep2l;
#X msg -317 33 read -resize -maxsize 105840 music/p2l.wav p2l;
#X connect 1 0 2 0;
#X connect 1 0 3 0;
#X connect 2 0 26 0;
#X connect 3 0 17 0;
#X connect 4 0 7 0;
#X connect 4 0 28 0;
#X connect 5 0 6 0;
#X connect 6 0 7 0;
#X connect 7 0 8 0;
#X connect 7 0 9 0;
#X connect 9 0 11 0;
#X connect 11 0 10 0;
#X connect 12 0 4 0;
#X connect 15 0 30 0;
#X connect 16 0 21 0;
#X connect 17 0 18 0;
#X connect 18 0 12 0;
#X connect 19 0 22 0;
#X connect 20 0 14 0;
#X connect 20 0 14 1;
#X connect 21 0 18 0;
#X connect 22 0 20 1;
#X connect 23 0 22 0;
#X connect 24 0 23 0;
#X connect 25 0 19 0;
#X connect 27 0 4 1;
#X connect 28 0 20 0;
#X connect 29 0 9 1;
#X connect 30 0 1 0;
#X restore 17 410 pd play-p2l;
#N canvas 93 230 642 532 play-p1c 1;
#N canvas 0 22 450 300 (subpatch) 0;
#X array p1c 85504 float 2;
#X coords 0 1 85504 -1 200 140 1;
#X restore -71 327 graph;
#X obj -313 75 soundfiler;
#X floatatom -283 107 15 0 0 0 - - -;
#X obj -313 160 expr 44100 / $f1;
#X obj -313 299 *~;
#X obj -204 308 tgl 15 0 empty empty empty 17 7 0 10 -262144 -1 -1
0 1;
#X obj -204 331 metro 50;
#X obj -204 361 snapshot~;
#X floatatom -187 385 15 0 0 0 - - -;
#X obj -204 430 /;
#X obj -67 477 hsl 195 15 0 1 0 0 empty empty empty -2 -8 0 10 -262144
-1 -1 0 1;
#X floatatom -192 459 5 0 0 0 - - -;
#X obj -313 254 phasor~;
#X obj -203 255 r Toggle_Start;
#X obj -315 489 dac~;
#X obj -313 17 r bang_read_wav;
#X obj -58 67 r startSamples;
#X msg -313 194 set \$1;
#X msg -313 224 0.515765;
#X msg -295 366 0 50;
#X obj -312 454 *~;
#X obj -52 89 bng 15 250 50 0 empty empty empty 17 7 0 10 -262144 -1
-1;
#X obj -295 395 vline~;
#X msg -250 366 0.8 50 \, 0 50 100;
#X obj -265 340 r playp1c;
#X obj -327 339 r stopp1c;
#X obj -283 128 s SampleSizep1c;
#X obj -300 278 r SampleSizep1c;
#X obj -185 406 r SampleSizep1c;
#X obj -312 422 tabread4~ p1c;
#X msg -312 46 read -resize music/p1c.wav p1c;
#X connect 1 0 2 0;
#X connect 1 0 3 0;
#X connect 2 0 26 0;
#X connect 3 0 17 0;
#X connect 4 0 7 0;
#X connect 4 0 29 0;
#X connect 5 0 6 0;
#X connect 6 0 7 0;
#X connect 7 0 8 0;
#X connect 7 0 9 0;
#X connect 9 0 11 0;
#X connect 11 0 10 0;
#X connect 12 0 4 0;
#X connect 15 0 30 0;
#X connect 16 0 21 0;
#X connect 17 0 18 0;
#X connect 18 0 12 0;
#X connect 19 0 22 0;
#X connect 20 0 14 0;
#X connect 20 0 14 1;
#X connect 21 0 18 0;
#X connect 22 0 20 1;
#X connect 23 0 22 0;
#X connect 24 0 23 0;
#X connect 25 0 19 0;
#X connect 27 0 4 1;
#X connect 28 0 9 1;
#X connect 29 0 20 0;
#X connect 30 0 1 0;
#X restore 17 431 pd play-p1c;
#N canvas 754 176 642 532 play-p2c 1;
#N canvas 0 22 450 300 (subpatch) 0;
#X array p2c 92160 float 2;
#X coords 0 1 92160 -1 200 140 1;
#X restore -71 327 graph;
#X obj -313 75 soundfiler;
#X floatatom -283 107 15 0 0 0 - - -;
#X obj -313 160 expr 44100 / $f1;
#X obj -313 299 *~;
#X obj -204 308 tgl 15 0 empty empty empty 17 7 0 10 -262144 -1 -1
0 1;
#X obj -204 331 metro 50;
#X obj -204 361 snapshot~;
#X floatatom -187 385 15 0 0 0 - - -;
#X obj -204 430 /;
#X obj -67 477 hsl 195 15 0 1 0 0 empty empty empty -2 -8 0 10 -262144
-1 -1 0 1;
#X floatatom -192 459 5 0 0 0 - - -;
#X obj -313 254 phasor~;
#X obj -201 245 r Toggle_Start;
#X obj -315 489 dac~;
#X obj -313 17 r bang_read_wav;
#X obj -58 67 r startSamples;
#X msg -313 194 set \$1;
#X msg -313 224 0.478516;
#X msg -295 366 0 50;
#X obj -312 454 *~;
#X obj -52 89 bng 15 250 50 0 empty empty empty 17 7 0 10 -262144 -1
-1;
#X obj -295 395 vline~;
#X msg -250 366 0.8 50 \, 0 50 100;
#X obj -265 340 r playp2c;
#X obj -327 339 r stopp2c;
#X obj -283 128 s SampleSizep2c;
#X obj -300 278 r SampleSizep2c;
#X obj -312 422 tabread4~ p2c;
#X obj -186 406 r SampleSizep2c;
#X msg -313 45 read -resize music/p2c.wav p2c;
#X connect 1 0 2 0;
#X connect 1 0 3 0;
#X connect 2 0 26 0;
#X connect 3 0 17 0;
#X connect 4 0 7 0;
#X connect 4 0 28 0;
#X connect 5 0 6 0;
#X connect 6 0 7 0;
#X connect 7 0 8 0;
#X connect 7 0 9 0;
#X connect 9 0 11 0;
#X connect 11 0 10 0;
#X connect 12 0 4 0;
#X connect 15 0 30 0;
#X connect 16 0 21 0;
#X connect 17 0 18 0;
#X connect 18 0 12 0;
#X connect 19 0 22 0;
#X connect 20 0 14 0;
#X connect 20 0 14 1;
#X connect 21 0 18 0;
#X connect 22 0 20 1;
#X connect 23 0 22 0;
#X connect 24 0 23 0;
#X connect 25 0 19 0;
#X connect 27 0 4 1;
#X connect 28 0 20 0;
#X connect 29 0 9 1;
#X connect 30 0 1 0;
#X restore 17 453 pd play-p2c;
#X connect 10 0 11 0;
#X connect 10 0 12 0;
#X connect 12 0 16 0;
#X connect 12 1 14 0;
#X connect 12 2 13 0;
#X connect 16 0 17 0;
#X connect 18 0 17 0;
